<mxfile host="app.diagrams.net" modified="2024-01-17T23:40:37.055Z" agent="Mozilla/5.0 (Windows NT 10.0; Win64; x64) AppleWebKit/537.36 (KHTML, like Gecko) Chrome/120.0.0.0 Safari/537.36" version="22.1.21" etag="NTOcdjbmge6N22YrIxWX" type="github">
  <diagram name="PÃ¡gina-1" id="cfNV-EcELjuW4KuFhW7B">
    <mxGraphModel>
      <root>
        <mxCell id="0" />
        <mxCell id="1" parent="0" />
      </root>
    </mxGraphModel>
  </diagram>
</mxfile>
